{
    "asset" : {
        "generator" : "Khronos glTF Blender I/O v1.6.16",
        "version" : "2.0"
    },
    "scene" : 0,
    "scenes" : [
        {
            "name" : "Scene",
            "nodes" : [
                0,
                1,
                2,
                3,
                4,
                5,
                6,
                7,
                8,
                9
            ]
        }
    ],
    "nodes" : [
        {
            "name" : "Empty.001"
        },
        {
            "name" : "NurbsPath"
        },
        {
            "mesh" : 0,
            "name" : "Cube",
            "rotation" : [
                -0.6443563103675842,
                0.2910579741001129,
                -0.29111045598983765,
                -0.6444725394248962
            ],
            "translation" : [
                0,
                -0.027050018310546875,
                0.011518001556396484
            ]
        },
        {
            "name" : "Light",
            "rotation" : [
                -0.2106035053730011,
                -0.9515461921691895,
                0.19873817265033722,
                -0.1034848764538765
            ],
            "translation" : [
                7.276212215423584,
                16.407970428466797,
                -6.412519931793213
            ]
        },
        {
            "name" : "Camera",
            "rotation" : [
                0.5713497996330261,
                0.3919924199581146,
                -0.35775768756866455,
                0.6260278224945068
            ],
            "translation" : [
                31.988046646118164,
                8.472893714904785,
                14.985186576843262
            ]
        },
        {
            "name" : "Empty",
            "rotation" : [
                0.7071068286895752,
                0,
                0,
                0.7071067094802856
            ]
        },
        {
            "name" : "Camera.001",
            "rotation" : [
                -0.1832866370677948,
                -0.7994967103004456,
                0.4967494308948517,
                -0.28363895416259766
            ],
            "translation" : [
                0,
                -0.027050018310546875,
                0.011518001556396484
            ]
        },
        {
            "mesh" : 1,
            "name" : "Plane",
            "rotation" : [
                -1,
                0,
                0,
                -9.028514614328742e-05
            ],
            "scale" : [
                21.192434310913086,
                21.192434310913086,
                21.192434310913086
            ],
            "translation" : [
                0,
                -0.027050018310546875,
                0.011518001556396484
            ]
        },
        {
            "name" : "Area",
            "rotation" : [
                -0.23150639235973358,
                -0.8884255886077881,
                -0.33806219696998596,
                0.20692738890647888
            ],
            "translation" : [
                9.541936874389648,
                12.892643928527832,
                7.874359607696533
            ]
        },
        {
            "name" : "Area.001",
            "rotation" : [
                -0.6934173107147217,
                -0.5887736082077026,
                0.3347671329975128,
                -0.2458639293909073
            ],
            "translation" : [
                14.864142417907715,
                2.0146846771240234,
                -0.5952606201171875
            ]
        }
    ],
    "materials" : [
        {
            "doubleSided" : true,
            "name" : "Material.002",
            "pbrMetallicRoughness" : {
                "baseColorTexture" : {
                    "index" : 0
                },
                "metallicFactor" : 0,
                "roughnessFactor" : 0.5
            }
        },
        {
            "doubleSided" : true,
            "name" : "Material.003",
            "pbrMetallicRoughness" : {
                "baseColorFactor" : [
                    0.32638049125671387,
                    0.32638049125671387,
                    0.32638049125671387,
                    1
                ],
                "metallicFactor" : 0.30000001192092896,
                "roughnessFactor" : 0.5
            }
        }
    ],
    "meshes" : [
        {
            "name" : "Cube.001",
            "primitives" : [
                {
                    "attributes" : {
                        "POSITION" : 0,
                        "NORMAL" : 1,
                        "TEXCOORD_0" : 2
                    },
                    "indices" : 3,
                    "material" : 0
                },
                {
                    "attributes" : {
                        "POSITION" : 4,
                        "NORMAL" : 5,
                        "TEXCOORD_0" : 6
                    },
                    "indices" : 7,
                    "material" : 1
                }
            ]
        },
        {
            "name" : "Plane",
            "primitives" : [
                {
                    "attributes" : {
                        "POSITION" : 8,
                        "NORMAL" : 9,
                        "TEXCOORD_0" : 10
                    },
                    "indices" : 11
                }
            ]
        }
    ],
    "textures" : [
        {
            "sampler" : 0,
            "source" : 0
        }
    ],
    "images" : [
        {
            "bufferView" : 4,
            "mimeType" : "image/jpeg",
            "name" : "IMG_0631"
        }
    ],
    "accessors" : [
        {
            "bufferView" : 0,
            "componentType" : 5126,
            "count" : 364,
            "max" : [
                2.4260289669036865,
                2.426046848297119,
                -0.7400123476982117
            ],
            "min" : [
                -2.4241724014282227,
                -2.4260001182556152,
                -7.885897636413574
            ],
            "type" : "VEC3"
        },
        {
            "bufferView" : 1,
            "componentType" : 5126,
            "count" : 364,
            "type" : "VEC3"
        },
        {
            "bufferView" : 2,
            "componentType" : 5126,
            "count" : 364,
            "type" : "VEC2"
        },
        {
            "bufferView" : 3,
            "componentType" : 5123,
            "count" : 1728,
            "type" : "SCALAR"
        },
        {
            "bufferView" : 5,
            "componentType" : 5126,
            "count" : 982,
            "max" : [
                2.4214749336242676,
                2.421492338180542,
                -0.16246427595615387
            ],
            "min" : [
                -2.419621706008911,
                -2.4214463233947754,
                -9.220989227294922
            ],
            "type" : "VEC3"
        },
        {
            "bufferView" : 6,
            "componentType" : 5126,
            "count" : 982,
            "type" : "VEC3"
        },
        {
            "bufferView" : 7,
            "componentType" : 5126,
            "count" : 982,
            "type" : "VEC2"
        },
        {
            "bufferView" : 8,
            "componentType" : 5123,
            "count" : 4752,
            "type" : "SCALAR"
        },
        {
            "bufferView" : 9,
            "componentType" : 5126,
            "count" : 4,
            "max" : [
                1,
                0,
                1
            ],
            "min" : [
                -1,
                0,
                -1
            ],
            "type" : "VEC3"
        },
        {
            "bufferView" : 10,
            "componentType" : 5126,
            "count" : 4,
            "type" : "VEC3"
        },
        {
            "bufferView" : 11,
            "componentType" : 5126,
            "count" : 4,
            "type" : "VEC2"
        },
        {
            "bufferView" : 12,
            "componentType" : 5123,
            "count" : 6,
            "type" : "SCALAR"
        }
    ],
    "bufferViews" : [
        {
            "buffer" : 0,
            "byteLength" : 4368,
            "byteOffset" : 0
        },
        {
            "buffer" : 0,
            "byteLength" : 4368,
            "byteOffset" : 4368
        },
        {
            "buffer" : 0,
            "byteLength" : 2912,
            "byteOffset" : 8736
        },
        {
            "buffer" : 0,
            "byteLength" : 3456,
            "byteOffset" : 11648
        },
        {
            "buffer" : 0,
            "byteLength" : 697880,
            "byteOffset" : 15104
        },
        {
            "buffer" : 0,
            "byteLength" : 11784,
            "byteOffset" : 712984
        },
        {
            "buffer" : 0,
            "byteLength" : 11784,
            "byteOffset" : 724768
        },
        {
            "buffer" : 0,
            "byteLength" : 7856,
            "byteOffset" : 736552
        },
        {
            "buffer" : 0,
            "byteLength" : 9504,
            "byteOffset" : 744408
        },
        {
            "buffer" : 0,
            "byteLength" : 48,
            "byteOffset" : 753912
        },
        {
            "buffer" : 0,
            "byteLength" : 48,
            "byteOffset" : 753960
        },
        {
            "buffer" : 0,
            "byteLength" : 32,
            "byteOffset" : 754008
        },
        {
            "buffer" : 0,
            "byteLength" : 12,
            "byteOffset" : 754040
        }
    ],
    "samplers" : [
        {
            "magFilter" : 9729,
            "minFilter" : 9987
        }
    ],
    "buffers" : [
        {
            "byteLength" : 754052,
            "uri" : "data:application/octet-stream;base64,"
        }
    ]
}
