{
    "asset" : {
        "generator" : "Khronos glTF Blender I/O v1.6.16",
        "version" : "2.0"
    },
    "scene" : 0,
    "scenes" : [
        {
            "name" : "Scene",
            "nodes" : [
                0,
                1,
                2,
                3,
                4,
                5,
                6,
                7,
                8,
                9,
                10
            ]
        }
    ],
    "nodes" : [
        {
            "name" : "Empty.001"
        },
        {
            "name" : "NurbsPath"
        },
        {
            "mesh" : 0,
            "name" : "Cube",
            "rotation" : [
                -0.6443563103675842,
                0.2910579741001129,
                -0.29111045598983765,
                -0.6444725394248962
            ],
            "translation" : [
                0,
                -0.027050018310546875,
                0.011518001556396484
            ]
        },
        {
            "mesh" : 1,
            "name" : "Cube.001",
            "rotation" : [
                -0.3663904368877411,
                0.6047525405883789,
                -0.6047300696372986,
                -0.3665159344673157
            ],
            "translation" : [
                0,
                -0.027050018310546875,
                -7.190662860870361
            ]
        },
        {
            "name" : "Light",
            "rotation" : [
                -0.2106035053730011,
                -0.9515461921691895,
                0.19873817265033722,
                -0.1034848764538765
            ],
            "translation" : [
                7.276212215423584,
                16.407970428466797,
                -6.412519931793213
            ]
        },
        {
            "name" : "Camera",
            "rotation" : [
                0.4598556160926819,
                0.537753701210022,
                -0.46393880248069763,
                0.5330239534378052
            ],
            "translation" : [
                35.171443939208984,
                10.364879608154297,
                -0.15182234346866608
            ]
        },
        {
            "name" : "Empty",
            "rotation" : [
                0.7071068286895752,
                0,
                0,
                0.7071067094802856
            ]
        },
        {
            "name" : "Camera.001",
            "rotation" : [
                -0.1832866370677948,
                -0.7994967103004456,
                0.4967494308948517,
                -0.28363895416259766
            ],
            "translation" : [
                0,
                -0.027050018310546875,
                0.011518001556396484
            ]
        },
        {
            "mesh" : 2,
            "name" : "Plane",
            "rotation" : [
                -1,
                0,
                0,
                -9.028514614328742e-05
            ],
            "scale" : [
                21.192434310913086,
                21.192434310913086,
                21.192434310913086
            ],
            "translation" : [
                0,
                -0.027050018310546875,
                0.011518001556396484
            ]
        },
        {
            "name" : "Area",
            "rotation" : [
                -0.23150639235973358,
                -0.8884255886077881,
                -0.33806219696998596,
                0.20692738890647888
            ],
            "translation" : [
                9.541936874389648,
                12.892643928527832,
                7.874359607696533
            ]
        },
        {
            "name" : "Area.001",
            "rotation" : [
                -0.6934173107147217,
                -0.5887736082077026,
                0.3347671329975128,
                -0.2458639293909073
            ],
            "translation" : [
                14.864142417907715,
                2.0146846771240234,
                -0.5952606201171875
            ]
        }
    ],
    "materials" : [
        {
            "doubleSided" : true,
            "name" : "Material.002",
            "pbrMetallicRoughness" : {
                "baseColorTexture" : {
                    "index" : 0
                },
                "metallicFactor" : 0.20000000298023224,
                "roughnessFactor" : 0.5
            }
        },
        {
            "doubleSided" : true,
            "name" : "Material.003",
            "pbrMetallicRoughness" : {
                "baseColorFactor" : [
                    0.32638049125671387,
                    0.32638049125671387,
                    0.32638049125671387,
                    1
                ],
                "metallicFactor" : 0.30000001192092896,
                "roughnessFactor" : 0.5
            }
        }
    ],
    "meshes" : [
        {
            "name" : "Cube.001",
            "primitives" : [
                {
                    "attributes" : {
                        "POSITION" : 0,
                        "NORMAL" : 1,
                        "TEXCOORD_0" : 2
                    },
                    "indices" : 3,
                    "material" : 0
                },
                {
                    "attributes" : {
                        "POSITION" : 4,
                        "NORMAL" : 5,
                        "TEXCOORD_0" : 6
                    },
                    "indices" : 7,
                    "material" : 1
                }
            ]
        },
        {
            "name" : "Cube.006",
            "primitives" : [
                {
                    "attributes" : {
                        "POSITION" : 8,
                        "NORMAL" : 9,
                        "TEXCOORD_0" : 10
                    },
                    "indices" : 3,
                    "material" : 0
                },
                {
                    "attributes" : {
                        "POSITION" : 11,
                        "NORMAL" : 12,
                        "TEXCOORD_0" : 13
                    },
                    "indices" : 7,
                    "material" : 1
                }
            ]
        },
        {
            "name" : "Plane",
            "primitives" : [
                {
                    "attributes" : {
                        "POSITION" : 14,
                        "NORMAL" : 15,
                        "TEXCOORD_0" : 16
                    },
                    "indices" : 17
                }
            ]
        }
    ],
    "textures" : [
        {
            "sampler" : 0,
            "source" : 0
        }
    ],
    "images" : [
        {
            "bufferView" : 4,
            "mimeType" : "image/jpeg",
            "name" : "IMG_0631"
        }
    ],
    "accessors" : [
        {
            "bufferView" : 0,
            "componentType" : 5126,
            "count" : 92,
            "max" : [
                2.540191888809204,
                2.540210008621216,
                -0.7257814407348633
            ],
            "min" : [
                -2.5401721000671387,
                -2.5401618480682373,
                -7.892845630645752
            ],
            "type" : "VEC3"
        },
        {
            "bufferView" : 1,
            "componentType" : 5126,
            "count" : 92,
            "type" : "VEC3"
        },
        {
            "bufferView" : 2,
            "componentType" : 5126,
            "count" : 92,
            "type" : "VEC2"
        },
        {
            "bufferView" : 3,
            "componentType" : 5123,
            "count" : 432,
            "type" : "SCALAR"
        },
        {
            "bufferView" : 5,
            "componentType" : 5126,
            "count" : 206,
            "max" : [
                2.540191888809204,
                2.540210008621216,
                -0.15120644867420197
            ],
            "min" : [
                -2.5401721000671387,
                -2.5401618480682373,
                -9.314155578613281
            ],
            "type" : "VEC3"
        },
        {
            "bufferView" : 6,
            "componentType" : 5126,
            "count" : 206,
            "type" : "VEC3"
        },
        {
            "bufferView" : 7,
            "componentType" : 5126,
            "count" : 206,
            "type" : "VEC2"
        },
        {
            "bufferView" : 8,
            "componentType" : 5123,
            "count" : 1152,
            "type" : "SCALAR"
        },
        {
            "bufferView" : 9,
            "componentType" : 5126,
            "count" : 92,
            "max" : [
                2.540191888809204,
                2.540210008621216,
                -0.7257814407348633
            ],
            "min" : [
                -2.5401721000671387,
                -2.5401618480682373,
                -7.892845630645752
            ],
            "type" : "VEC3"
        },
        {
            "bufferView" : 10,
            "componentType" : 5126,
            "count" : 92,
            "type" : "VEC3"
        },
        {
            "bufferView" : 11,
            "componentType" : 5126,
            "count" : 92,
            "type" : "VEC2"
        },
        {
            "bufferView" : 12,
            "componentType" : 5126,
            "count" : 206,
            "max" : [
                2.540191888809204,
                2.540210008621216,
                -0.15120644867420197
            ],
            "min" : [
                -2.5401721000671387,
                -2.5401618480682373,
                -9.314155578613281
            ],
            "type" : "VEC3"
        },
        {
            "bufferView" : 13,
            "componentType" : 5126,
            "count" : 206,
            "type" : "VEC3"
        },
        {
            "bufferView" : 14,
            "componentType" : 5126,
            "count" : 206,
            "type" : "VEC2"
        },
        {
            "bufferView" : 15,
            "componentType" : 5126,
            "count" : 4,
            "max" : [
                1,
                0,
                1
            ],
            "min" : [
                -1,
                0,
                -1
            ],
            "type" : "VEC3"
        },
        {
            "bufferView" : 16,
            "componentType" : 5126,
            "count" : 4,
            "type" : "VEC3"
        },
        {
            "bufferView" : 17,
            "componentType" : 5126,
            "count" : 4,
            "type" : "VEC2"
        },
        {
            "bufferView" : 18,
            "componentType" : 5123,
            "count" : 6,
            "type" : "SCALAR"
        }
    ],
    "bufferViews" : [
        {
            "buffer" : 0,
            "byteLength" : 1104,
            "byteOffset" : 0
        },
        {
            "buffer" : 0,
            "byteLength" : 1104,
            "byteOffset" : 1104
        },
        {
            "buffer" : 0,
            "byteLength" : 736,
            "byteOffset" : 2208
        },
        {
            "buffer" : 0,
            "byteLength" : 864,
            "byteOffset" : 2944
        },
        {
            "buffer" : 0,
            "byteLength" : 697880,
            "byteOffset" : 3808
        },
        {
            "buffer" : 0,
            "byteLength" : 2472,
            "byteOffset" : 701688
        },
        {
            "buffer" : 0,
            "byteLength" : 2472,
            "byteOffset" : 704160
        },
        {
            "buffer" : 0,
            "byteLength" : 1648,
            "byteOffset" : 706632
        },
        {
            "buffer" : 0,
            "byteLength" : 2304,
            "byteOffset" : 708280
        },
        {
            "buffer" : 0,
            "byteLength" : 1104,
            "byteOffset" : 710584
        },
        {
            "buffer" : 0,
            "byteLength" : 1104,
            "byteOffset" : 711688
        },
        {
            "buffer" : 0,
            "byteLength" : 736,
            "byteOffset" : 712792
        },
        {
            "buffer" : 0,
            "byteLength" : 2472,
            "byteOffset" : 713528
        },
        {
            "buffer" : 0,
            "byteLength" : 2472,
            "byteOffset" : 716000
        },
        {
            "buffer" : 0,
            "byteLength" : 1648,
            "byteOffset" : 718472
        },
        {
            "buffer" : 0,
            "byteLength" : 48,
            "byteOffset" : 720120
        },
        {
            "buffer" : 0,
            "byteLength" : 48,
            "byteOffset" : 720168
        },
        {
            "buffer" : 0,
            "byteLength" : 32,
            "byteOffset" : 720216
        },
        {
            "buffer" : 0,
            "byteLength" : 12,
            "byteOffset" : 720248
        }
    ],
    "samplers" : [
        {
            "magFilter" : 9729,
            "minFilter" : 9987
        }
    ],
    "buffers" : [
        {
            "byteLength" : 720260,
            "uri" : "data:application/octet-stream;base64,"
        }
    ]
}
